<svg width="50" height="50" viewBox="0 0 50 50" fill="none" xmlns="http://www.w3.org/2000/svg">
<path d="M24.7118 5C24.1598 5 23.7262 5.43365 23.7262 5.98558C23.7262 6.5375 24.1598 6.97115 24.7118 6.97115C25.2637 6.97115 25.6973 6.5375 25.6973 5.98558C25.6973 5.43365 25.2637 5 24.7118 5ZM19.7839 6.97115C19.232 6.97115 18.7983 7.40481 18.7983 7.95673C18.7983 8.50865 19.232 8.94231 19.7839 8.94231C20.3358 8.94231 20.7695 8.50865 20.7695 7.95673C20.7695 7.40481 20.3358 6.97115 19.7839 6.97115ZM29.6396 6.97115C29.0877 6.97115 28.6541 7.40481 28.6541 7.95673C28.6541 8.50865 29.0877 8.94231 29.6396 8.94231C30.1916 8.94231 30.6252 8.50865 30.6252 7.95673C30.6252 7.40481 30.1916 6.97115 29.6396 6.97115ZM24.7118 8.94231C22.5435 8.94231 20.7695 10.7163 20.7695 12.8846C20.7695 15.0529 22.5435 16.8269 24.7118 16.8269C26.88 16.8269 28.6541 15.0529 28.6541 12.8846C28.6541 10.7163 26.88 8.94231 24.7118 8.94231ZM17.8127 11.899C17.2608 11.899 16.8271 12.3327 16.8271 12.8846C16.8271 13.4365 17.2608 13.8702 17.8127 13.8702C18.3646 13.8702 18.7983 13.4365 18.7983 12.8846C18.7983 12.3327 18.3646 11.899 17.8127 11.899ZM31.6108 11.899C31.0589 11.899 30.6252 12.3327 30.6252 12.8846C30.6252 13.4365 31.0589 13.8702 31.6108 13.8702C32.1627 13.8702 32.5964 13.4365 32.5964 12.8846C32.5964 12.3327 32.1627 11.899 31.6108 11.899ZM19.7839 16.8269C19.232 16.8269 18.7983 17.2606 18.7983 17.8125C18.7983 18.3644 19.232 18.7981 19.7839 18.7981C20.3358 18.7981 20.7695 18.3644 20.7695 17.8125C20.7695 17.2606 20.3358 16.8269 19.7839 16.8269ZM29.6396 16.8269C29.0877 16.8269 28.6541 17.2606 28.6541 17.8125C28.6541 18.3644 29.0877 18.7981 29.6396 18.7981C30.1916 18.7981 30.6252 18.3644 30.6252 17.8125C30.6252 17.2606 30.1916 16.8269 29.6396 16.8269ZM24.7118 18.7981C24.1598 18.7981 23.7262 19.2317 23.7262 19.7837C23.7262 20.3356 24.1598 20.7692 24.7118 20.7692C25.2637 20.7692 25.6973 20.3356 25.6973 19.7837C25.6973 19.2317 25.2637 18.7981 24.7118 18.7981Z" fill="#2431A5"/>
<path d="M24.7118 29.3848C24.1598 29.3848 23.7262 29.8184 23.7262 30.3703C23.7262 30.9223 24.1598 31.3559 24.7118 31.3559C25.2637 31.3559 25.6973 30.9223 25.6973 30.3703C25.6973 29.8184 25.2637 29.3848 24.7118 29.3848ZM19.7839 31.3559C19.232 31.3559 18.7983 31.7896 18.7983 32.3415C18.7983 32.8934 19.232 33.3271 19.7839 33.3271C20.3358 33.3271 20.7695 32.8934 20.7695 32.3415C20.7695 31.7896 20.3358 31.3559 19.7839 31.3559ZM29.6396 31.3559C29.0877 31.3559 28.6541 31.7896 28.6541 32.3415C28.6541 32.8934 29.0877 33.3271 29.6396 33.3271C30.1916 33.3271 30.6252 32.8934 30.6252 32.3415C30.6252 31.7896 30.1916 31.3559 29.6396 31.3559ZM24.7118 33.3271C22.5435 33.3271 20.7695 35.1011 20.7695 37.2694C20.7695 39.4377 22.5435 41.2117 24.7118 41.2117C26.88 41.2117 28.6541 39.4377 28.6541 37.2694C28.6541 35.1011 26.88 33.3271 24.7118 33.3271ZM17.8127 36.2838C17.2608 36.2838 16.8271 36.7175 16.8271 37.2694C16.8271 37.8213 17.2608 38.255 17.8127 38.255C18.3646 38.255 18.7983 37.8213 18.7983 37.2694C18.7983 36.7175 18.3646 36.2838 17.8127 36.2838ZM31.6108 36.2838C31.0589 36.2838 30.6252 36.7175 30.6252 37.2694C30.6252 37.8213 31.0589 38.255 31.6108 38.255C32.1627 38.255 32.5964 37.8213 32.5964 37.2694C32.5964 36.7175 32.1627 36.2838 31.6108 36.2838ZM19.7839 41.2117C19.232 41.2117 18.7983 41.6453 18.7983 42.1973C18.7983 42.7492 19.232 43.1828 19.7839 43.1828C20.3358 43.1828 20.7695 42.7492 20.7695 42.1973C20.7695 41.6453 20.3358 41.2117 19.7839 41.2117ZM29.6396 41.2117C29.0877 41.2117 28.6541 41.6453 28.6541 42.1973C28.6541 42.7492 29.0877 43.1828 29.6396 43.1828C30.1916 43.1828 30.6252 42.7492 30.6252 42.1973C30.6252 41.6453 30.1916 41.2117 29.6396 41.2117ZM24.7118 43.1828C24.1598 43.1828 23.7262 43.6165 23.7262 44.1684C23.7262 44.7203 24.1598 45.154 24.7118 45.154C25.2637 45.154 25.6973 44.7203 25.6973 44.1684C25.6973 43.6165 25.2637 43.1828 24.7118 43.1828Z" fill="#2431A5"/>
<path fill-rule="evenodd" clip-rule="evenodd" d="M36.144 20.1487C36.144 19.5967 36.5777 19.1631 37.1296 19.1631C37.6815 19.1631 38.1152 19.5967 38.1152 20.1487C38.1152 20.7006 37.6815 21.1342 37.1296 21.1342C36.5777 21.1342 36.144 20.7006 36.144 20.1487ZM38.1152 25.0765C38.1152 22.9083 39.8892 21.1342 42.0575 21.1342V29.0189C39.8892 29.0189 38.1152 27.2448 38.1152 25.0765ZM34.1729 25.0765C34.1729 24.5246 34.6065 24.091 35.1584 24.091C35.7104 24.091 36.144 24.5246 36.144 25.0765C36.144 25.6285 35.7104 26.0621 35.1584 26.0621C34.6065 26.0621 34.1729 25.6285 34.1729 25.0765ZM36.144 30.0044C36.144 29.4525 36.5777 29.0189 37.1296 29.0189C37.6815 29.0189 38.1152 29.4525 38.1152 30.0044C38.1152 30.5564 37.6815 30.99 37.1296 30.99C36.5777 30.99 36.144 30.5564 36.144 30.0044Z" fill="#2431A5"/>
<path fill-rule="evenodd" clip-rule="evenodd" d="M14.856 30.3992C14.856 30.9511 14.4223 31.3848 13.8704 31.3848C13.3185 31.3848 12.8848 30.9511 12.8848 30.3992C12.8848 29.8473 13.3185 29.4136 13.8704 29.4136C14.4223 29.4136 14.856 29.8473 14.856 30.3992ZM12.8848 25.4713C12.8848 27.6396 11.1108 29.4136 8.94253 29.4136L8.94253 21.529C11.1108 21.529 12.8848 23.303 12.8848 25.4713ZM16.8271 25.4713C16.8271 26.0232 16.3935 26.4569 15.8416 26.4569C15.2896 26.4569 14.856 26.0232 14.856 25.4713C14.856 24.9194 15.2896 24.4857 15.8416 24.4857C16.3935 24.4857 16.8271 24.9194 16.8271 25.4713ZM14.856 20.5434C14.856 21.0953 14.4223 21.529 13.8704 21.529C13.3185 21.529 12.8848 21.0953 12.8848 20.5434C12.8848 19.9915 13.3185 19.5578 13.8704 19.5578C14.4223 19.5578 14.856 19.9915 14.856 20.5434Z" fill="#2431A5"/>
</svg>
