<svg width="32" height="32" viewBox="0 0 32 32" fill="none" xmlns="http://www.w3.org/2000/svg">
<path d="M16.0002 25.0004C18.0502 25.0004 19.7002 23.3504 19.7002 21.3004C19.7002 19.2504 18.0502 17.6004 16.0002 17.6004C13.9502 17.6004 12.3002 19.2504 12.3002 21.3004C12.3002 23.3504 13.9502 25.0004 16.0002 25.0004ZM15.0002 21.0004V19.3004C15.0002 18.7504 15.4502 18.3004 16.0002 18.3004C16.5502 18.3004 17.0002 18.8004 17.0002 19.3004V21.1004C17.3002 21.3504 17.5502 21.6504 17.8502 21.9004C18.2502 22.3004 18.2002 22.9004 17.8502 23.3004C17.5002 23.7004 16.8002 23.6504 16.4502 23.3004C16.2502 23.1004 16.0002 22.9004 15.8002 22.7004C15.6002 22.5004 15.3002 22.3004 15.1502 22.0004C14.9502 21.7504 15.0002 21.3004 15.0002 21.0004ZM26.3002 11.4004H28.3002V8.60039C28.3002 6.35039 26.5002 4.50039 24.2502 4.40039V6.70039C24.2502 7.25039 23.8002 7.70039 23.2502 7.70039C22.7002 7.70039 22.2502 7.20039 22.2502 6.70039V4.40039H17.0002V6.60039C17.0002 7.15039 16.5502 7.60039 16.0002 7.60039C15.4502 7.60039 15.0002 7.10039 15.0002 6.60039V4.40039H9.9002V6.60039C9.9002 7.15039 9.4502 7.60039 8.9002 7.60039C8.3502 7.60039 7.9002 7.10039 7.9002 6.60039V4.40039C5.6002 4.40039 3.7002 6.30039 3.7002 8.60039V11.4004H5.7002H26.3002Z" fill="#2431A5"/>
<path d="M5.7002 13.4004H3.7002V24.8004C3.7002 27.1004 5.6002 29.0004 7.9002 29.0004H24.1002C26.4002 29.0004 28.3002 27.1004 28.3002 24.8004V13.4004H26.3002H5.7002ZM16.0002 15.5504C19.1502 15.5504 21.7002 18.1004 21.7002 21.2504C21.7002 24.4504 19.1502 27.0004 16.0002 27.0004C12.8502 27.0004 10.3002 24.4504 10.3002 21.3004C10.3002 18.1504 12.8502 15.5504 16.0002 15.5504Z" fill="#2431A5"/>
</svg>
