<svg width="250" height="150" viewBox="0 0 250 150" fill="none" xmlns="http://www.w3.org/2000/svg">
<path d="M139.89 99.7136C139.282 99.7136 138.674 99.5202 138.152 99.1335C136.878 98.1666 136.617 96.3489 137.583 95.0726C141.956 89.2519 144.272 82.3097 144.272 75C144.272 69.7981 143.104 64.809 140.807 60.1679C140.093 58.7369 140.681 56.9965 142.11 56.281C143.548 55.5655 145.276 56.1553 145.991 57.5863C148.694 63.0396 150.055 68.8989 150.055 75C150.055 83.5763 147.342 91.7175 142.207 98.563C141.637 99.3172 140.768 99.7233 139.89 99.7233V99.7136Z" fill="#1D1D1D"/>
<path d="M110.882 114.236C102.686 114.236 94.8285 111.722 88.1581 106.956C86.8549 106.027 86.5557 104.21 87.4824 102.914C88.4091 101.609 90.2142 101.309 91.5174 102.237C97.1935 106.298 103.893 108.445 110.872 108.445C117.852 108.445 125.101 106.124 130.912 101.744C132.187 100.777 134.011 101.038 134.967 102.315C135.932 103.591 135.671 105.418 134.397 106.376C127.572 111.519 119.435 114.236 110.872 114.236H110.882Z" fill="#1D1D1D"/>
<path d="M82.4338 100.439C81.5746 100.439 80.7348 100.062 80.1652 99.3365C74.6339 92.3363 71.709 83.9243 71.709 75C71.709 53.361 89.2779 35.7637 110.882 35.7637C119.792 35.7637 128.19 38.6933 135.179 44.2336C136.434 45.2295 136.646 47.0569 135.652 48.3042C134.658 49.5612 132.833 49.7739 131.588 48.778C125.642 44.0596 118.479 41.565 110.892 41.565C92.4828 41.565 77.5106 56.5614 77.5106 75C77.5106 82.5997 80.0011 89.774 84.7119 95.73C85.7062 96.987 85.4938 98.8144 84.2389 99.8006C83.708 100.226 83.0709 100.429 82.4434 100.429L82.4338 100.439Z" fill="#1D1D1D"/>
<path d="M110.882 148C70.6956 148 38 115.252 38 75C38 34.7485 70.6956 2 110.882 2C128.48 2 145.489 8.39113 158.762 19.9841C159.969 21.038 160.094 22.8654 159.042 24.074C157.99 25.2826 156.166 25.4083 154.959 24.3544C142.738 13.68 127.09 7.80132 110.892 7.80132C73.8908 7.80132 43.792 37.9489 43.792 75C43.792 112.051 73.8908 142.199 110.882 142.199C127.08 142.199 142.738 136.32 154.949 125.646C156.156 124.592 157.98 124.717 159.033 125.926C160.085 127.135 159.959 128.962 158.753 130.016C145.479 141.619 128.48 148 110.872 148H110.882Z" fill="#1D1D1D"/>
<path d="M170.829 56.8127C169.227 56.8127 167.933 55.5171 167.933 53.9121V35.4348C167.933 33.8298 169.227 32.5342 170.829 32.5342C172.432 32.5342 173.725 33.8298 173.725 35.4348V53.9121C173.725 55.5171 172.432 56.8127 170.829 56.8127Z" fill="#2431A5"/>
<path d="M166.012 143.291C164.409 143.291 163.116 141.996 163.116 140.391V83.731C163.097 82.9091 163.097 81.9519 163.087 80.9464C163.058 75.7638 163 67.0812 160.847 64.5769C158.183 61.6763 156.648 57.8571 156.59 53.9025C156.59 53.8638 156.59 53.8252 156.59 53.7865L157.073 35.3576C157.112 33.7526 158.415 32.486 160.046 32.5343C161.649 32.573 162.904 33.9073 162.865 35.5123L162.382 53.8832C162.431 56.3584 163.444 58.853 165.172 60.7287C168.773 64.9154 168.831 73.7817 168.879 80.9173C168.879 81.8939 168.889 82.8318 168.908 83.6826V140.4C168.908 142.005 167.614 143.301 166.012 143.301V143.291Z" fill="#2431A5"/>
<path d="M202.694 143.291C201.092 143.291 199.798 141.996 199.798 140.391V93.8833C199.798 81.8649 201.623 78.2004 203.408 76.1989C205.136 74.2555 206.208 72.3991 206.218 69.1503C206.218 64.0935 205.522 52.1138 203.553 39.8633C201.043 24.2384 198.032 17.5669 196.004 14.7242V140.391C196.004 141.996 194.711 143.291 193.108 143.291C191.506 143.291 190.212 141.996 190.212 140.391V9.6094C190.212 8.00437 191.506 6.70874 193.108 6.70874C195.28 6.70874 197.298 7.63695 199.122 9.4547C209.683 20.0421 212.019 61.9083 212.009 69.1697C212.009 74.5552 209.847 77.7073 207.733 80.0762C206.758 81.1687 205.6 84.4562 205.6 93.893V140.4C205.6 142.005 204.306 143.301 202.704 143.301L202.694 143.291Z" fill="#2431A5"/>
<path d="M175.598 143.291C173.995 143.291 172.702 141.996 172.702 140.391V83.7309C172.721 82.822 172.721 81.8938 172.731 80.9076C172.779 73.7816 172.837 64.9056 176.37 60.7867C178.156 58.8432 179.169 56.3486 179.218 53.8637L178.735 35.4929C178.696 33.8879 179.951 32.5632 181.554 32.5149C183.156 32.4955 184.479 33.7332 184.527 35.3382L185.01 53.7671C185.01 53.7671 185.01 53.8444 185.01 53.8831C184.952 57.8377 183.417 61.6569 180.695 64.6252C178.609 67.0521 178.552 75.7347 178.513 80.9269C178.513 81.9325 178.503 82.8897 178.484 83.7599V140.371C178.484 141.976 177.19 143.272 175.588 143.272L175.598 143.291Z" fill="#2431A5"/>
</svg>
