<svg width="50" height="50" viewBox="0 0 50 50" fill="none" xmlns="http://www.w3.org/2000/svg">
<path d="M39 11.9751C39 12.3674 38.759 12.8045 38.2771 13.2864L27.6519 23.9116V36.8232H33.0318C33.3232 36.8232 33.5753 36.9296 33.7883 37.1426C34.0012 37.3555 34.1077 37.6077 34.1077 37.8991C34.1077 38.1905 34.0012 38.4427 33.7883 38.6557C33.5753 38.8686 33.3232 38.9751 33.0318 38.9751H17.9682C17.6768 38.9751 17.4247 38.8686 17.2117 38.6557C16.9988 38.4427 16.8923 38.1905 16.8923 37.8991C16.8923 37.6077 16.9988 37.3555 17.2117 37.1426C17.4247 36.9296 17.6768 36.8232 17.9682 36.8232H23.3481V23.9116L12.7229 13.2864C12.241 12.8045 12 12.3674 12 11.9751C12 11.7173 12.1009 11.5128 12.3026 11.3615C12.5044 11.2101 12.7173 11.1121 12.9415 11.0672C13.1656 11.0224 13.4066 11 13.6644 11H37.3356C37.5934 11 37.8344 11.0224 38.0585 11.0672C38.2827 11.1121 38.4956 11.2101 38.6974 11.3615C38.8991 11.5128 39 11.7173 39 11.9751Z" fill="#2431A5"/>
</svg>
