<svg width="50" height="50" viewBox="0 0 50 50" fill="none" xmlns="http://www.w3.org/2000/svg">
<path d="M25.5 10C24.135 10 23.0625 11.0725 23.0625 12.4375C23.0625 13.8025 24.135 14.875 25.5 14.875C26.865 14.875 27.9375 13.8025 27.9375 12.4375C27.9375 11.0725 26.865 10 25.5 10ZM13.3125 14.875C11.9475 14.875 10.875 15.9475 10.875 17.3125C10.875 18.6775 11.9475 19.75 13.3125 19.75C14.6775 19.75 15.75 18.6775 15.75 17.3125C15.75 15.9475 14.6775 14.875 13.3125 14.875ZM37.6875 14.875C36.3225 14.875 35.25 15.9475 35.25 17.3125C35.25 18.6775 36.3225 19.75 37.6875 19.75C39.0525 19.75 40.125 18.6775 40.125 17.3125C40.125 15.9475 39.0525 14.875 37.6875 14.875ZM25.5 19.75C20.1375 19.75 15.75 24.1375 15.75 29.5C15.75 34.8625 20.1375 39.25 25.5 39.25C30.8625 39.25 35.25 34.8625 35.25 29.5C35.25 24.1375 30.8625 19.75 25.5 19.75ZM8.4375 27.0625C7.0725 27.0625 6 28.135 6 29.5C6 30.865 7.0725 31.9375 8.4375 31.9375C9.8025 31.9375 10.875 30.865 10.875 29.5C10.875 28.135 9.8025 27.0625 8.4375 27.0625ZM42.5625 27.0625C41.1975 27.0625 40.125 28.135 40.125 29.5C40.125 30.865 41.1975 31.9375 42.5625 31.9375C43.9275 31.9375 45 30.865 45 29.5C45 28.135 43.9275 27.0625 42.5625 27.0625Z" fill="#2431A5"/>
</svg>
