<svg width="131" height="15" viewBox="0 0 131 15" fill="none" xmlns="http://www.w3.org/2000/svg">
<path d="M0.332617 14C0.422617 13.328 0.509617 12.656 0.593617 11.984C0.677617 11.312 0.767617 10.583 0.863617 9.797L1.39462 5.495C1.49662 4.721 1.58962 3.989 1.67362 3.299C1.75762 2.609 1.84462 1.898 1.93462 1.166H4.93162C5.21962 1.898 5.49262 2.6 5.75062 3.272C6.01462 3.938 6.27562 4.601 6.53362 5.261L8.06362 9.185H8.26162L9.74662 5.27C9.99862 4.604 10.2476 3.944 10.4936 3.29C10.7456 2.636 11.0096 1.928 11.2856 1.166H14.2466C14.3366 1.886 14.4236 2.591 14.5076 3.281C14.5976 3.971 14.6936 4.712 14.7956 5.504L15.3446 9.824C15.4406 10.604 15.5306 11.324 15.6146 11.984C15.7046 12.644 15.7916 13.316 15.8756 14H13.0586C12.9506 13.1 12.8456 12.245 12.7436 11.435C12.6416 10.625 12.5486 9.866 12.4646 9.158L12.0866 6.116H11.8886L10.7726 9.383C10.5026 10.187 10.2296 10.985 9.95362 11.777C9.68362 12.563 9.43162 13.304 9.19762 14H7.23562C7.06762 13.55 6.88462 13.067 6.68662 12.551C6.49462 12.035 6.29662 11.51 6.09262 10.976C5.88862 10.436 5.68762 9.908 5.48962 9.392L4.24762 6.116H4.04962L3.68062 9.14C3.59662 9.854 3.50362 10.619 3.40162 11.435C3.30562 12.245 3.20362 13.1 3.09562 14H0.332617ZM18.1052 14C18.1052 13.31 18.1052 12.641 18.1052 11.993C18.1052 11.345 18.1052 10.619 18.1052 9.815V5.459C18.1052 4.631 18.1052 3.884 18.1052 3.218C18.1052 2.552 18.1052 1.868 18.1052 1.166H21.1292C21.1292 1.868 21.1292 2.552 21.1292 3.218C21.1292 3.884 21.1292 4.631 21.1292 5.459V9.815C21.1292 10.619 21.1292 11.345 21.1292 11.993C21.1292 12.641 21.1292 13.31 21.1292 14H18.1052ZM29.8944 14.243C28.8504 14.243 27.9114 14.084 27.0774 13.766C26.2434 13.448 25.5294 12.995 24.9354 12.407C24.3474 11.813 23.8974 11.111 23.5854 10.301C23.2734 9.485 23.1174 8.582 23.1174 7.592C23.1174 6.308 23.3784 5.162 23.9004 4.154C24.4224 3.14 25.1724 2.345 26.1504 1.769C27.1284 1.193 28.2984 0.905 29.6604 0.905C30.0744 0.905 30.4824 0.931999 30.8844 0.985999C31.2924 1.04 31.6824 1.112 32.0544 1.202C32.4264 1.292 32.7714 1.397 33.0894 1.517C33.4134 1.631 33.7014 1.754 33.9534 1.886L33.7284 4.64C33.2604 4.346 32.8104 4.112 32.3784 3.938C31.9464 3.758 31.5294 3.629 31.1274 3.551C30.7314 3.467 30.3534 3.425 29.9934 3.425C29.2614 3.425 28.6104 3.587 28.0404 3.911C27.4704 4.229 27.0204 4.7 26.6904 5.324C26.3664 5.942 26.2044 6.698 26.2044 7.592C26.2044 8.162 26.2884 8.702 26.4564 9.212C26.6244 9.716 26.8764 10.163 27.2124 10.553C27.5544 10.943 27.9804 11.249 28.4904 11.471C29.0004 11.693 29.5974 11.804 30.2814 11.804C30.5634 11.804 30.8454 11.786 31.1274 11.75C31.4154 11.708 31.7034 11.645 31.9914 11.561C32.2794 11.477 32.5674 11.363 32.8554 11.219C33.1434 11.069 33.4314 10.889 33.7194 10.679L33.8814 13.397C33.6234 13.541 33.3384 13.667 33.0264 13.775C32.7144 13.883 32.3844 13.97 32.0364 14.036C31.6944 14.108 31.3404 14.159 30.9744 14.189C30.6144 14.225 30.2544 14.243 29.8944 14.243ZM36.0071 14C36.0071 13.31 36.0071 12.641 36.0071 11.993C36.0071 11.345 36.0071 10.619 36.0071 9.815V5.459C36.0071 4.631 36.0071 3.884 36.0071 3.218C36.0071 2.552 36.0071 1.868 36.0071 1.166H44.5301V3.587C43.9781 3.587 43.3841 3.587 42.7481 3.587C42.1181 3.587 41.3741 3.587 40.5161 3.587H37.4921L38.9051 1.634C38.9051 2.336 38.9051 3.02 38.9051 3.686C38.9051 4.352 38.9051 5.099 38.9051 5.927V9.347C38.9051 10.145 38.9051 10.871 38.9051 11.525C38.9051 12.173 38.9051 12.842 38.9051 13.532L37.6811 11.579H40.7321C41.4461 11.579 42.1211 11.579 42.7571 11.579C43.3991 11.579 44.0171 11.579 44.6111 11.579V14H36.0071ZM38.2301 8.654V6.404H40.5791C41.3711 6.404 42.0491 6.404 42.6131 6.404C43.1771 6.404 43.7201 6.404 44.2421 6.404V8.654C43.6901 8.654 43.1321 8.654 42.5681 8.654C42.0041 8.654 41.3411 8.654 40.5791 8.654H38.2301Z" fill="#2431A5"/>
<path d="M51.2563 14C50.6083 14 50.0053 14 49.4473 14C48.8953 14 48.3913 14 47.9353 14C47.4853 14 47.0893 14 46.7473 14C46.7473 13.31 46.7473 12.641 46.7473 11.993C46.7473 11.345 46.7473 10.619 46.7473 9.815V5.459C46.7473 4.631 46.7473 3.884 46.7473 3.218C46.7473 2.552 46.7473 1.868 46.7473 1.166C47.4733 1.166 48.2893 1.166 49.1953 1.166C50.1013 1.166 51.0163 1.166 51.9403 1.166C52.8163 1.166 53.5483 1.238 54.1363 1.382C54.7303 1.52 55.2013 1.721 55.5493 1.985C55.9033 2.243 56.1553 2.552 56.3053 2.912C56.4613 3.272 56.5393 3.674 56.5393 4.118C56.5393 4.664 56.4373 5.138 56.2333 5.54C56.0293 5.942 55.7503 6.275 55.3963 6.539C55.0423 6.797 54.6433 6.983 54.1993 7.097V7.322C54.7093 7.436 55.1623 7.613 55.5583 7.853C55.9603 8.093 56.2723 8.42 56.4943 8.834C56.7163 9.248 56.8273 9.77 56.8273 10.4C56.8273 10.94 56.7403 11.432 56.5663 11.876C56.3983 12.314 56.1043 12.692 55.6843 13.01C55.2703 13.328 54.7033 13.574 53.9833 13.748C53.2633 13.916 52.3543 14 51.2563 14ZM49.6543 11.777H51.5263C52.0423 11.777 52.4653 11.714 52.7953 11.588C53.1313 11.462 53.3773 11.279 53.5333 11.039C53.6893 10.799 53.7673 10.502 53.7673 10.148C53.7673 9.614 53.5873 9.221 53.2273 8.969C52.8673 8.711 52.3483 8.582 51.6703 8.582H48.9523V6.503H51.5443C51.9823 6.503 52.3453 6.434 52.6333 6.296C52.9213 6.152 53.1343 5.96 53.2723 5.72C53.4163 5.48 53.4883 5.201 53.4883 4.883C53.4883 4.385 53.3413 4.01 53.0473 3.758C52.7533 3.5 52.3063 3.371 51.7063 3.371H49.6543C49.6543 3.785 49.6543 4.208 49.6543 4.64C49.6543 5.072 49.6543 5.564 49.6543 6.116V9.176C49.6543 9.692 49.6543 10.157 49.6543 10.571C49.6543 10.979 49.6543 11.381 49.6543 11.777ZM64.7943 14.243C63.6363 14.243 62.6343 14.066 61.7883 13.712C60.9423 13.352 60.2463 12.863 59.7003 12.245C59.1543 11.621 58.7463 10.91 58.4763 10.112C58.2123 9.314 58.0803 8.474 58.0803 7.592C58.0803 6.344 58.3263 5.216 58.8183 4.208C59.3163 3.194 60.0543 2.39 61.0323 1.796C62.0163 1.202 63.2433 0.905 64.7133 0.905C65.8293 0.905 66.8043 1.079 67.6383 1.427C68.4723 1.769 69.1653 2.246 69.7173 2.858C70.2753 3.47 70.6923 4.178 70.9683 4.982C71.2443 5.786 71.3823 6.65 71.3823 7.574C71.3823 8.852 71.1273 9.992 70.6173 10.994C70.1133 11.996 69.3723 12.788 68.3943 13.37C67.4163 13.952 66.2163 14.243 64.7943 14.243ZM64.7493 11.804C65.3433 11.804 65.8623 11.693 66.3063 11.471C66.7503 11.243 67.1193 10.931 67.4133 10.535C67.7073 10.139 67.9263 9.689 68.0703 9.185C68.2203 8.675 68.2953 8.138 68.2953 7.574C68.2953 6.98 68.2143 6.428 68.0523 5.918C67.8963 5.402 67.6653 4.952 67.3593 4.568C67.0593 4.184 66.6903 3.884 66.2523 3.668C65.8143 3.452 65.3133 3.344 64.7493 3.344C64.1673 3.344 63.6513 3.455 63.2013 3.677C62.7573 3.899 62.3853 4.208 62.0853 4.604C61.7853 4.994 61.5573 5.444 61.4013 5.954C61.2453 6.464 61.1673 7.004 61.1673 7.574C61.1673 8.144 61.2423 8.684 61.3923 9.194C61.5423 9.698 61.7643 10.148 62.0583 10.544C62.3583 10.934 62.7303 11.243 63.1743 11.471C63.6243 11.693 64.1493 11.804 64.7493 11.804ZM79.4544 14.243C78.2964 14.243 77.2944 14.066 76.4484 13.712C75.6024 13.352 74.9064 12.863 74.3604 12.245C73.8144 11.621 73.4064 10.91 73.1364 10.112C72.8724 9.314 72.7404 8.474 72.7404 7.592C72.7404 6.344 72.9864 5.216 73.4784 4.208C73.9764 3.194 74.7144 2.39 75.6924 1.796C76.6764 1.202 77.9034 0.905 79.3734 0.905C80.4894 0.905 81.4644 1.079 82.2984 1.427C83.1324 1.769 83.8254 2.246 84.3774 2.858C84.9354 3.47 85.3524 4.178 85.6284 4.982C85.9044 5.786 86.0424 6.65 86.0424 7.574C86.0424 8.852 85.7874 9.992 85.2774 10.994C84.7734 11.996 84.0324 12.788 83.0544 13.37C82.0764 13.952 80.8764 14.243 79.4544 14.243ZM79.4094 11.804C80.0034 11.804 80.5224 11.693 80.9664 11.471C81.4104 11.243 81.7794 10.931 82.0734 10.535C82.3674 10.139 82.5864 9.689 82.7304 9.185C82.8804 8.675 82.9554 8.138 82.9554 7.574C82.9554 6.98 82.8744 6.428 82.7124 5.918C82.5564 5.402 82.3254 4.952 82.0194 4.568C81.7194 4.184 81.3504 3.884 80.9124 3.668C80.4744 3.452 79.9734 3.344 79.4094 3.344C78.8274 3.344 78.3114 3.455 77.8614 3.677C77.4174 3.899 77.0454 4.208 76.7454 4.604C76.4454 4.994 76.2174 5.444 76.0614 5.954C75.9054 6.464 75.8274 7.004 75.8274 7.574C75.8274 8.144 75.9024 8.684 76.0524 9.194C76.2024 9.698 76.4244 10.148 76.7184 10.544C77.0184 10.934 77.3904 11.243 77.8344 11.471C78.2844 11.693 78.8094 11.804 79.4094 11.804ZM95.3836 14C94.9876 13.43 94.6126 12.896 94.2586 12.398C93.9106 11.894 93.5686 11.399 93.2326 10.913L91.5406 8.492H90.7126V6.17H91.5046L93.0166 4.19C93.3766 3.722 93.7336 3.257 94.0876 2.795C94.4416 2.327 94.8526 1.784 95.3206 1.166H98.7316C98.1736 1.844 97.6276 2.51 97.0936 3.164C96.5656 3.818 96.0346 4.478 95.5006 5.144L93.4666 7.655L93.4126 6.35L95.6716 9.473C96.0196 9.953 96.3916 10.469 96.7876 11.021C97.1896 11.573 97.5796 12.11 97.9576 12.632C98.3356 13.154 98.6686 13.61 98.9566 14H95.3836ZM87.9946 14C87.9946 13.31 87.9946 12.641 87.9946 11.993C87.9946 11.345 87.9946 10.619 87.9946 9.815V5.459C87.9946 4.631 87.9946 3.884 87.9946 3.218C87.9946 2.552 87.9946 1.868 87.9946 1.166H90.9466C90.9466 1.868 90.9466 2.552 90.9466 3.218C90.9466 3.884 90.9466 4.631 90.9466 5.459V9.815C90.9466 10.619 90.9466 11.345 90.9466 11.993C90.9466 12.641 90.9466 13.31 90.9466 14H87.9946ZM100.617 14C100.617 13.31 100.617 12.641 100.617 11.993C100.617 11.345 100.617 10.619 100.617 9.815V5.459C100.617 4.631 100.617 3.884 100.617 3.218C100.617 2.552 100.617 1.868 100.617 1.166H103.641C103.641 1.868 103.641 2.552 103.641 3.218C103.641 3.884 103.641 4.631 103.641 5.459V9.815C103.641 10.619 103.641 11.345 103.641 11.993C103.641 12.641 103.641 13.31 103.641 14H100.617ZM106.223 14C106.223 13.31 106.223 12.641 106.223 11.993C106.223 11.345 106.223 10.619 106.223 9.815V5.459C106.223 4.631 106.223 3.884 106.223 3.218C106.223 2.552 106.223 1.868 106.223 1.166H108.806C109.406 2.042 109.973 2.87 110.507 3.65C111.041 4.424 111.575 5.201 112.109 5.981L114.197 9.005H114.413V5.459C114.413 4.631 114.413 3.884 114.413 3.218C114.413 2.552 114.413 1.868 114.413 1.166H117.194C117.194 1.868 117.194 2.552 117.194 3.218C117.194 3.884 117.194 4.631 117.194 5.459V9.815C117.194 10.619 117.194 11.345 117.194 11.993C117.194 12.641 117.194 13.31 117.194 14H114.638C114.146 13.28 113.63 12.53 113.09 11.75C112.55 10.97 111.959 10.118 111.317 9.194L109.202 6.134H108.995V9.815C108.995 10.619 108.995 11.345 108.995 11.993C108.995 12.641 108.995 13.31 108.995 14H106.223ZM126.059 14.225C124.955 14.225 123.974 14.063 123.116 13.739C122.258 13.409 121.532 12.947 120.938 12.353C120.35 11.759 119.9 11.057 119.588 10.247C119.282 9.437 119.129 8.549 119.129 7.583C119.129 6.275 119.396 5.12 119.93 4.118C120.47 3.11 121.241 2.324 122.243 1.76C123.245 1.19 124.448 0.905 125.852 0.905C126.302 0.905 126.74 0.935 127.166 0.995C127.598 1.049 128.006 1.124 128.39 1.22C128.774 1.31 129.131 1.415 129.461 1.535C129.791 1.649 130.082 1.769 130.334 1.895L130.109 4.64C129.605 4.352 129.116 4.118 128.642 3.938C128.174 3.758 127.724 3.629 127.292 3.551C126.866 3.467 126.464 3.425 126.086 3.425C125.534 3.425 125.021 3.515 124.547 3.695C124.079 3.869 123.668 4.133 123.314 4.487C122.96 4.841 122.684 5.279 122.486 5.801C122.294 6.317 122.198 6.914 122.198 7.592C122.198 8.174 122.279 8.723 122.441 9.239C122.609 9.755 122.861 10.211 123.197 10.607C123.533 10.997 123.959 11.303 124.475 11.525C124.997 11.747 125.609 11.858 126.311 11.858C126.683 11.858 127.037 11.84 127.373 11.804C127.709 11.768 128.033 11.711 128.345 11.633C128.657 11.555 128.963 11.459 129.263 11.345C129.569 11.225 129.875 11.081 130.181 10.913L130.532 13.55C130.328 13.634 130.064 13.718 129.74 13.802C129.422 13.88 129.062 13.952 128.66 14.018C128.264 14.084 127.844 14.135 127.4 14.171C126.956 14.207 126.509 14.225 126.059 14.225ZM127.751 13.604C127.751 12.932 127.751 12.344 127.751 11.84C127.751 11.336 127.751 10.829 127.751 10.319C127.751 9.731 127.751 9.209 127.751 8.753C127.751 8.297 127.751 7.832 127.751 7.358H130.532C130.532 7.832 130.532 8.297 130.532 8.753C130.532 9.209 130.532 9.731 130.532 10.319C130.532 10.829 130.532 11.336 130.532 11.84C130.532 12.338 130.532 12.908 130.532 13.55L127.751 13.604Z" fill="black"/>
</svg>
