<svg width="131" height="15" viewBox="0 0 131 15" fill="none" xmlns="http://www.w3.org/2000/svg">
<path d="M0.19187 14C0.28187 13.328 0.36887 12.656 0.45287 11.984C0.53687 11.312 0.62687 10.583 0.72287 9.797L1.25387 5.495C1.35587 4.721 1.44887 3.989 1.53287 3.299C1.61687 2.609 1.70387 1.898 1.79387 1.166H4.79087C5.07887 1.898 5.35187 2.6 5.60987 3.272C5.87387 3.938 6.13487 4.601 6.39287 5.261L7.92287 9.185H8.12087L9.60587 5.27C9.85787 4.604 10.1069 3.944 10.3529 3.29C10.6049 2.636 10.8689 1.928 11.1449 1.166H14.1059C14.1959 1.886 14.2829 2.591 14.3669 3.281C14.4569 3.971 14.5529 4.712 14.6549 5.504L15.2039 9.824C15.2999 10.604 15.3899 11.324 15.4739 11.984C15.5639 12.644 15.6509 13.316 15.7349 14H12.9179C12.8099 13.1 12.7049 12.245 12.6029 11.435C12.5009 10.625 12.4079 9.866 12.3239 9.158L11.9459 6.116H11.7479L10.6319 9.383C10.3619 10.187 10.0889 10.985 9.81287 11.777C9.54287 12.563 9.29087 13.304 9.05687 14H7.09487C6.92687 13.55 6.74387 13.067 6.54587 12.551C6.35387 12.035 6.15587 11.51 5.95187 10.976C5.74787 10.436 5.54687 9.908 5.34887 9.392L4.10687 6.116H3.90887L3.53987 9.14C3.45587 9.854 3.36287 10.619 3.26087 11.435C3.16487 12.245 3.06287 13.1 2.95487 14H0.19187ZM17.9645 14C17.9645 13.31 17.9645 12.641 17.9645 11.993C17.9645 11.345 17.9645 10.619 17.9645 9.815V5.459C17.9645 4.631 17.9645 3.884 17.9645 3.218C17.9645 2.552 17.9645 1.868 17.9645 1.166H20.9885C20.9885 1.868 20.9885 2.552 20.9885 3.218C20.9885 3.884 20.9885 4.631 20.9885 5.459V9.815C20.9885 10.619 20.9885 11.345 20.9885 11.993C20.9885 12.641 20.9885 13.31 20.9885 14H17.9645ZM29.7536 14.243C28.7096 14.243 27.7706 14.084 26.9366 13.766C26.1026 13.448 25.3886 12.995 24.7946 12.407C24.2066 11.813 23.7566 11.111 23.4446 10.301C23.1326 9.485 22.9766 8.582 22.9766 7.592C22.9766 6.308 23.2376 5.162 23.7596 4.154C24.2816 3.14 25.0316 2.345 26.0096 1.769C26.9876 1.193 28.1576 0.905 29.5196 0.905C29.9336 0.905 30.3416 0.931999 30.7436 0.985999C31.1516 1.04 31.5416 1.112 31.9136 1.202C32.2856 1.292 32.6306 1.397 32.9486 1.517C33.2726 1.631 33.5606 1.754 33.8126 1.886L33.5876 4.64C33.1196 4.346 32.6696 4.112 32.2376 3.938C31.8056 3.758 31.3886 3.629 30.9866 3.551C30.5906 3.467 30.2126 3.425 29.8526 3.425C29.1206 3.425 28.4696 3.587 27.8996 3.911C27.3296 4.229 26.8796 4.7 26.5496 5.324C26.2256 5.942 26.0636 6.698 26.0636 7.592C26.0636 8.162 26.1476 8.702 26.3156 9.212C26.4836 9.716 26.7356 10.163 27.0716 10.553C27.4136 10.943 27.8396 11.249 28.3496 11.471C28.8596 11.693 29.4566 11.804 30.1406 11.804C30.4226 11.804 30.7046 11.786 30.9866 11.75C31.2746 11.708 31.5626 11.645 31.8506 11.561C32.1386 11.477 32.4266 11.363 32.7146 11.219C33.0026 11.069 33.2906 10.889 33.5786 10.679L33.7406 13.397C33.4826 13.541 33.1976 13.667 32.8856 13.775C32.5736 13.883 32.2436 13.97 31.8956 14.036C31.5536 14.108 31.1996 14.159 30.8336 14.189C30.4736 14.225 30.1136 14.243 29.7536 14.243ZM35.8663 14C35.8663 13.31 35.8663 12.641 35.8663 11.993C35.8663 11.345 35.8663 10.619 35.8663 9.815V5.459C35.8663 4.631 35.8663 3.884 35.8663 3.218C35.8663 2.552 35.8663 1.868 35.8663 1.166H44.3893V3.587C43.8373 3.587 43.2433 3.587 42.6073 3.587C41.9773 3.587 41.2333 3.587 40.3753 3.587H37.3513L38.7643 1.634C38.7643 2.336 38.7643 3.02 38.7643 3.686C38.7643 4.352 38.7643 5.099 38.7643 5.927V9.347C38.7643 10.145 38.7643 10.871 38.7643 11.525C38.7643 12.173 38.7643 12.842 38.7643 13.532L37.5403 11.579H40.5913C41.3053 11.579 41.9803 11.579 42.6163 11.579C43.2583 11.579 43.8763 11.579 44.4703 11.579V14H35.8663ZM38.0893 8.654V6.404H40.4383C41.2303 6.404 41.9083 6.404 42.4723 6.404C43.0363 6.404 43.5793 6.404 44.1013 6.404V8.654C43.5493 8.654 42.9913 8.654 42.4273 8.654C41.8633 8.654 41.2003 8.654 40.4383 8.654H38.0893Z" fill="white"/>
<path d="M51.1156 14C50.4676 14 49.8646 14 49.3066 14C48.7546 14 48.2506 14 47.7946 14C47.3446 14 46.9486 14 46.6066 14C46.6066 13.31 46.6066 12.641 46.6066 11.993C46.6066 11.345 46.6066 10.619 46.6066 9.815V5.459C46.6066 4.631 46.6066 3.884 46.6066 3.218C46.6066 2.552 46.6066 1.868 46.6066 1.166C47.3326 1.166 48.1486 1.166 49.0546 1.166C49.9606 1.166 50.8756 1.166 51.7996 1.166C52.6756 1.166 53.4076 1.238 53.9956 1.382C54.5896 1.52 55.0606 1.721 55.4086 1.985C55.7626 2.243 56.0146 2.552 56.1646 2.912C56.3206 3.272 56.3986 3.674 56.3986 4.118C56.3986 4.664 56.2966 5.138 56.0926 5.54C55.8886 5.942 55.6096 6.275 55.2556 6.539C54.9016 6.797 54.5026 6.983 54.0586 7.097V7.322C54.5686 7.436 55.0216 7.613 55.4176 7.853C55.8196 8.093 56.1316 8.42 56.3536 8.834C56.5756 9.248 56.6866 9.77 56.6866 10.4C56.6866 10.94 56.5996 11.432 56.4256 11.876C56.2576 12.314 55.9636 12.692 55.5436 13.01C55.1296 13.328 54.5626 13.574 53.8426 13.748C53.1226 13.916 52.2136 14 51.1156 14ZM49.5136 11.777H51.3856C51.9016 11.777 52.3246 11.714 52.6546 11.588C52.9906 11.462 53.2366 11.279 53.3926 11.039C53.5486 10.799 53.6266 10.502 53.6266 10.148C53.6266 9.614 53.4466 9.221 53.0866 8.969C52.7266 8.711 52.2076 8.582 51.5296 8.582H48.8116V6.503H51.4036C51.8416 6.503 52.2046 6.434 52.4926 6.296C52.7806 6.152 52.9936 5.96 53.1316 5.72C53.2756 5.48 53.3476 5.201 53.3476 4.883C53.3476 4.385 53.2006 4.01 52.9066 3.758C52.6126 3.5 52.1656 3.371 51.5656 3.371H49.5136C49.5136 3.785 49.5136 4.208 49.5136 4.64C49.5136 5.072 49.5136 5.564 49.5136 6.116V9.176C49.5136 9.692 49.5136 10.157 49.5136 10.571C49.5136 10.979 49.5136 11.381 49.5136 11.777ZM64.6535 14.243C63.4955 14.243 62.4935 14.066 61.6475 13.712C60.8015 13.352 60.1055 12.863 59.5595 12.245C59.0135 11.621 58.6055 10.91 58.3355 10.112C58.0715 9.314 57.9395 8.474 57.9395 7.592C57.9395 6.344 58.1855 5.216 58.6775 4.208C59.1755 3.194 59.9135 2.39 60.8915 1.796C61.8755 1.202 63.1025 0.905 64.5725 0.905C65.6885 0.905 66.6635 1.079 67.4975 1.427C68.3315 1.769 69.0245 2.246 69.5765 2.858C70.1345 3.47 70.5515 4.178 70.8275 4.982C71.1035 5.786 71.2415 6.65 71.2415 7.574C71.2415 8.852 70.9865 9.992 70.4765 10.994C69.9725 11.996 69.2315 12.788 68.2535 13.37C67.2755 13.952 66.0755 14.243 64.6535 14.243ZM64.6085 11.804C65.2025 11.804 65.7215 11.693 66.1655 11.471C66.6095 11.243 66.9785 10.931 67.2725 10.535C67.5665 10.139 67.7855 9.689 67.9295 9.185C68.0795 8.675 68.1545 8.138 68.1545 7.574C68.1545 6.98 68.0735 6.428 67.9115 5.918C67.7555 5.402 67.5245 4.952 67.2185 4.568C66.9185 4.184 66.5495 3.884 66.1115 3.668C65.6735 3.452 65.1725 3.344 64.6085 3.344C64.0265 3.344 63.5105 3.455 63.0605 3.677C62.6165 3.899 62.2445 4.208 61.9445 4.604C61.6445 4.994 61.4165 5.444 61.2605 5.954C61.1045 6.464 61.0265 7.004 61.0265 7.574C61.0265 8.144 61.1015 8.684 61.2515 9.194C61.4015 9.698 61.6235 10.148 61.9175 10.544C62.2175 10.934 62.5895 11.243 63.0335 11.471C63.4835 11.693 64.0085 11.804 64.6085 11.804ZM79.3137 14.243C78.1557 14.243 77.1537 14.066 76.3077 13.712C75.4617 13.352 74.7657 12.863 74.2197 12.245C73.6737 11.621 73.2657 10.91 72.9957 10.112C72.7317 9.314 72.5997 8.474 72.5997 7.592C72.5997 6.344 72.8457 5.216 73.3377 4.208C73.8357 3.194 74.5737 2.39 75.5517 1.796C76.5357 1.202 77.7627 0.905 79.2327 0.905C80.3487 0.905 81.3237 1.079 82.1577 1.427C82.9917 1.769 83.6847 2.246 84.2367 2.858C84.7947 3.47 85.2117 4.178 85.4877 4.982C85.7637 5.786 85.9017 6.65 85.9017 7.574C85.9017 8.852 85.6467 9.992 85.1367 10.994C84.6327 11.996 83.8917 12.788 82.9137 13.37C81.9357 13.952 80.7357 14.243 79.3137 14.243ZM79.2687 11.804C79.8627 11.804 80.3817 11.693 80.8257 11.471C81.2697 11.243 81.6387 10.931 81.9327 10.535C82.2267 10.139 82.4457 9.689 82.5897 9.185C82.7397 8.675 82.8147 8.138 82.8147 7.574C82.8147 6.98 82.7337 6.428 82.5717 5.918C82.4157 5.402 82.1847 4.952 81.8787 4.568C81.5787 4.184 81.2097 3.884 80.7717 3.668C80.3337 3.452 79.8327 3.344 79.2687 3.344C78.6867 3.344 78.1707 3.455 77.7207 3.677C77.2767 3.899 76.9047 4.208 76.6047 4.604C76.3047 4.994 76.0767 5.444 75.9207 5.954C75.7647 6.464 75.6867 7.004 75.6867 7.574C75.6867 8.144 75.7617 8.684 75.9117 9.194C76.0617 9.698 76.2837 10.148 76.5777 10.544C76.8777 10.934 77.2497 11.243 77.6937 11.471C78.1437 11.693 78.6687 11.804 79.2687 11.804ZM95.2428 14C94.8468 13.43 94.4718 12.896 94.1178 12.398C93.7698 11.894 93.4278 11.399 93.0918 10.913L91.3998 8.492H90.5718V6.17H91.3638L92.8758 4.19C93.2358 3.722 93.5928 3.257 93.9468 2.795C94.3008 2.327 94.7118 1.784 95.1798 1.166H98.5908C98.0328 1.844 97.4868 2.51 96.9528 3.164C96.4248 3.818 95.8938 4.478 95.3598 5.144L93.3258 7.655L93.2718 6.35L95.5308 9.473C95.8788 9.953 96.2508 10.469 96.6468 11.021C97.0488 11.573 97.4388 12.11 97.8168 12.632C98.1948 13.154 98.5278 13.61 98.8158 14H95.2428ZM87.8538 14C87.8538 13.31 87.8538 12.641 87.8538 11.993C87.8538 11.345 87.8538 10.619 87.8538 9.815V5.459C87.8538 4.631 87.8538 3.884 87.8538 3.218C87.8538 2.552 87.8538 1.868 87.8538 1.166H90.8058C90.8058 1.868 90.8058 2.552 90.8058 3.218C90.8058 3.884 90.8058 4.631 90.8058 5.459V9.815C90.8058 10.619 90.8058 11.345 90.8058 11.993C90.8058 12.641 90.8058 13.31 90.8058 14H87.8538ZM100.476 14C100.476 13.31 100.476 12.641 100.476 11.993C100.476 11.345 100.476 10.619 100.476 9.815V5.459C100.476 4.631 100.476 3.884 100.476 3.218C100.476 2.552 100.476 1.868 100.476 1.166H103.5C103.5 1.868 103.5 2.552 103.5 3.218C103.5 3.884 103.5 4.631 103.5 5.459V9.815C103.5 10.619 103.5 11.345 103.5 11.993C103.5 12.641 103.5 13.31 103.5 14H100.476ZM106.082 14C106.082 13.31 106.082 12.641 106.082 11.993C106.082 11.345 106.082 10.619 106.082 9.815V5.459C106.082 4.631 106.082 3.884 106.082 3.218C106.082 2.552 106.082 1.868 106.082 1.166H108.665C109.265 2.042 109.832 2.87 110.366 3.65C110.9 4.424 111.434 5.201 111.968 5.981L114.056 9.005H114.272V5.459C114.272 4.631 114.272 3.884 114.272 3.218C114.272 2.552 114.272 1.868 114.272 1.166H117.053C117.053 1.868 117.053 2.552 117.053 3.218C117.053 3.884 117.053 4.631 117.053 5.459V9.815C117.053 10.619 117.053 11.345 117.053 11.993C117.053 12.641 117.053 13.31 117.053 14H114.497C114.005 13.28 113.489 12.53 112.949 11.75C112.409 10.97 111.818 10.118 111.176 9.194L109.061 6.134H108.854V9.815C108.854 10.619 108.854 11.345 108.854 11.993C108.854 12.641 108.854 13.31 108.854 14H106.082ZM125.918 14.225C124.814 14.225 123.833 14.063 122.975 13.739C122.117 13.409 121.391 12.947 120.797 12.353C120.209 11.759 119.759 11.057 119.447 10.247C119.141 9.437 118.988 8.549 118.988 7.583C118.988 6.275 119.255 5.12 119.789 4.118C120.329 3.11 121.1 2.324 122.102 1.76C123.104 1.19 124.307 0.905 125.711 0.905C126.161 0.905 126.599 0.935 127.025 0.995C127.457 1.049 127.865 1.124 128.249 1.22C128.633 1.31 128.99 1.415 129.32 1.535C129.65 1.649 129.941 1.769 130.193 1.895L129.968 4.64C129.464 4.352 128.975 4.118 128.501 3.938C128.033 3.758 127.583 3.629 127.151 3.551C126.725 3.467 126.323 3.425 125.945 3.425C125.393 3.425 124.88 3.515 124.406 3.695C123.938 3.869 123.527 4.133 123.173 4.487C122.819 4.841 122.543 5.279 122.345 5.801C122.153 6.317 122.057 6.914 122.057 7.592C122.057 8.174 122.138 8.723 122.3 9.239C122.468 9.755 122.72 10.211 123.056 10.607C123.392 10.997 123.818 11.303 124.334 11.525C124.856 11.747 125.468 11.858 126.17 11.858C126.542 11.858 126.896 11.84 127.232 11.804C127.568 11.768 127.892 11.711 128.204 11.633C128.516 11.555 128.822 11.459 129.122 11.345C129.428 11.225 129.734 11.081 130.04 10.913L130.391 13.55C130.187 13.634 129.923 13.718 129.599 13.802C129.281 13.88 128.921 13.952 128.519 14.018C128.123 14.084 127.703 14.135 127.259 14.171C126.815 14.207 126.368 14.225 125.918 14.225ZM127.61 13.604C127.61 12.932 127.61 12.344 127.61 11.84C127.61 11.336 127.61 10.829 127.61 10.319C127.61 9.731 127.61 9.209 127.61 8.753C127.61 8.297 127.61 7.832 127.61 7.358H130.391C130.391 7.832 130.391 8.297 130.391 8.753C130.391 9.209 130.391 9.731 130.391 10.319C130.391 10.829 130.391 11.336 130.391 11.84C130.391 12.338 130.391 12.908 130.391 13.55L127.61 13.604Z" fill="#C0C4EC"/>
</svg>
