<svg width="50" height="50" viewBox="0 0 50 50" fill="none" xmlns="http://www.w3.org/2000/svg">
<circle cx="35.6794" cy="7.76491" r="1.76491" transform="rotate(90 35.6794 7.76491)" fill="#2431A5"/>
<circle cx="39.8279" cy="7.76491" r="1.76491" transform="rotate(90 39.8279 7.76491)" fill="#2431A5"/>
<circle cx="31.2673" cy="7.76491" r="1.76491" transform="rotate(90 31.2673 7.76491)" fill="#2431A5"/>
<circle cx="26.8547" cy="7.76491" r="1.76491" transform="rotate(90 26.8547 7.76491)" fill="#2431A5"/>
<circle cx="22.4426" cy="7.76491" r="1.76491" transform="rotate(90 22.4426 7.76491)" fill="#2431A5"/>
<circle cx="18.0305" cy="7.76491" r="1.76491" transform="rotate(90 18.0305 7.76491)" fill="#2431A5"/>
<circle cx="13.6179" cy="7.76491" r="1.76491" transform="rotate(90 13.6179 7.76491)" fill="#2431A5"/>
<circle cx="9.20579" cy="7.76491" r="1.76491" transform="rotate(90 9.20579 7.76491)" fill="#2431A5"/>
<circle cx="36.5617" cy="43.0633" r="1.76491" transform="rotate(90 36.5617 43.0633)" fill="#2431A5"/>
<circle cx="40.7107" cy="43.0633" r="1.76491" transform="rotate(90 40.7107 43.0633)" fill="#2431A5"/>
<circle cx="32.1496" cy="43.0633" r="1.76491" transform="rotate(90 32.1496 43.0633)" fill="#2431A5"/>
<circle cx="27.7375" cy="43.0633" r="1.76491" transform="rotate(90 27.7375 43.0633)" fill="#2431A5"/>
<circle cx="23.3249" cy="43.0633" r="1.76491" transform="rotate(90 23.3249 43.0633)" fill="#2431A5"/>
<circle cx="18.9128" cy="43.0633" r="1.76491" transform="rotate(90 18.9128 43.0633)" fill="#2431A5"/>
<circle cx="14.5007" cy="43.0633" r="1.76491" transform="rotate(90 14.5007 43.0633)" fill="#2431A5"/>
<circle cx="3.02854" cy="36.8843" r="1.76491" transform="rotate(180 3.02854 36.8843)" fill="#2431A5"/>
<circle cx="2.97581" cy="32.4719" r="1.76491" transform="rotate(180 2.97581 32.4719)" fill="#2431A5"/>
<circle cx="2.92356" cy="28.0598" r="1.76491" transform="rotate(180 2.92356 28.0598)" fill="#2431A5"/>
<circle cx="2.87083" cy="23.6482" r="1.76491" transform="rotate(180 2.87083 23.6482)" fill="#2431A5"/>
<circle cx="2.81761" cy="19.2368" r="1.76491" transform="rotate(180 2.81761 19.2368)" fill="#2431A5"/>
<circle cx="2.76487" cy="14.8247" r="1.76491" transform="rotate(180 2.76487 14.8247)" fill="#2431A5"/>
<circle cx="48.0339" cy="36.8843" r="1.76491" transform="rotate(180 48.0339 36.8843)" fill="#2431A5"/>
<circle cx="47.9812" cy="32.4719" r="1.76491" transform="rotate(180 47.9812 32.4719)" fill="#2431A5"/>
<circle cx="47.9289" cy="28.0598" r="1.76491" transform="rotate(180 47.9289 28.0598)" fill="#2431A5"/>
<circle cx="47.8762" cy="23.6482" r="1.76491" transform="rotate(180 47.8762 23.6482)" fill="#2431A5"/>
<circle cx="47.823" cy="19.2368" r="1.76491" transform="rotate(180 47.823 19.2368)" fill="#2431A5"/>
<circle cx="47.7702" cy="14.8247" r="1.76491" transform="rotate(180 47.7702 14.8247)" fill="#2431A5"/>
<circle cx="10.0881" cy="43.0633" r="1.76491" transform="rotate(90 10.0881 43.0633)" fill="#2431A5"/>
<path fill-rule="evenodd" clip-rule="evenodd" d="M44.2402 35.1211V39.5334L11.853 39.5334L7.17705 39.5334L6.55829 39.5334V11.2948H7.1769V11.2947L44.2401 11.2947V15.707L11.853 15.707V35.1211H44.2402Z" fill="#2431A5"/>
<rect x="44.2402" y="11.2947" width="28.2386" height="5.29474" transform="rotate(90 44.2402 11.2947)" fill="#2431A5"/>
</svg>
