<svg width="250" height="150" viewBox="0 0 250 150" fill="none" xmlns="http://www.w3.org/2000/svg">
<path d="M210.117 115.144V143.318H225.974V65.5771C225.974 61.1924 222.428 57.6411 218.05 57.6411C213.672 57.6411 210.126 61.1924 210.126 65.5771V115.144" stroke="#1D1D1D" stroke-width="6" stroke-linecap="round" stroke-linejoin="round"/>
<path d="M40.8472 13.936C40.8472 9.55132 37.3014 6 32.9236 6C28.5458 6 25 9.55132 25 13.936V143.318H40.8566V13.936H40.8472Z" stroke="#1D1D1D" stroke-width="6" stroke-linecap="round" stroke-linejoin="round"/>
<path d="M45.4517 63.7682C45.4517 63.7682 50.4441 78.3429 76.1816 78.3429C101.919 78.3429 106.911 63.7682 106.911 63.7682C106.911 63.7682 101.919 49.1936 76.1816 49.1936C50.4441 49.1936 45.4517 63.7682 45.4517 63.7682Z" stroke="#2431A5" stroke-width="6" stroke-linecap="round" stroke-linejoin="round"/>
<path d="M25.4868 143.159L225.487 143.159" stroke="#1D1D1D" stroke-width="6" stroke-linecap="round" stroke-linejoin="round"/>
<path d="M40.8472 125.845H210.117" stroke="#1D1D1D" stroke-width="6" stroke-linecap="round" stroke-linejoin="round"/>
<path d="M46.4868 108.159L73.4868 108.159" stroke="#2431A5" stroke-width="6" stroke-linecap="round" stroke-linejoin="round"/>
<path d="M90.6108 108.496H106.912" stroke="#2431A5" stroke-width="6" stroke-linecap="round" stroke-linejoin="round"/>
<path d="M125.487 108.159H204.487" stroke="#2431A5" stroke-width="6" stroke-linecap="round" stroke-linejoin="round"/>
<path d="M210.117 98.6847V94.6883C210.117 88.4285 205.049 83.343 198.789 83.343H52.1747C45.9247 83.343 40.8472 88.419 40.8472 94.6883V98.6847" stroke="#1D1D1D" stroke-width="6" stroke-linecap="round" stroke-linejoin="round"/>
</svg>
