<svg width="32" height="32" viewBox="0 0 32 32" fill="none" xmlns="http://www.w3.org/2000/svg">
<path d="M26.1724 25.2831L20.8725 19.7709C22.2352 18.151 22.9818 16.1128 22.9818 13.9909C22.9818 9.0334 18.9484 5 13.9909 5C9.0334 5 5 9.0334 5 13.9909C5 18.9484 9.0334 22.9818 13.9909 22.9818C15.852 22.9818 17.6256 22.4205 19.1419 21.3549L24.4821 26.9089C24.7053 27.1407 25.0056 27.2685 25.3273 27.2685C25.6318 27.2685 25.9207 27.1524 26.14 26.9413C26.6059 26.493 26.6208 25.7495 26.1724 25.2831ZM13.9909 7.34545C17.6553 7.34545 20.6364 10.3265 20.6364 13.9909C20.6364 17.6553 17.6553 20.6364 13.9909 20.6364C10.3265 20.6364 7.34545 17.6553 7.34545 13.9909C7.34545 10.3265 10.3265 7.34545 13.9909 7.34545Z" fill="#2431A5"/>
</svg>
