<svg width="50" height="50" viewBox="0 0 50 50" fill="none" xmlns="http://www.w3.org/2000/svg">
<rect x="15" y="10" width="21" height="6" fill="#2431A5"/>
<circle cx="22" cy="6" r="2" fill="#2431A5"/>
<circle cx="29" cy="6" r="2" fill="#2431A5"/>
<circle cx="12" cy="22" r="2" fill="#2431A5"/>
<line x1="9" y1="25.5" x2="15" y2="25.5" stroke="#2431A5"/>
<circle cx="21" cy="22" r="2" fill="#2431A5"/>
<line x1="18" y1="25.5" x2="24" y2="25.5" stroke="#2431A5"/>
<circle cx="30" cy="22" r="2" fill="#2431A5"/>
<line x1="27" y1="25.5" x2="33" y2="25.5" stroke="#2431A5"/>
<circle cx="39" cy="22" r="2" fill="#2431A5"/>
<line x1="36" y1="25.5" x2="42" y2="25.5" stroke="#2431A5"/>
<circle cx="12" cy="29" r="2" fill="#2431A5"/>
<line x1="9" y1="32.5" x2="15" y2="32.5" stroke="#2431A5"/>
<circle cx="21" cy="29" r="2" fill="#2431A5"/>
<line x1="18" y1="32.5" x2="24" y2="32.5" stroke="#2431A5"/>
<circle cx="30" cy="29" r="2" fill="#2431A5"/>
<line x1="27" y1="32.5" x2="33" y2="32.5" stroke="#2431A5"/>
<circle cx="39" cy="29" r="2" fill="#2431A5"/>
<line x1="36" y1="32.5" x2="42" y2="32.5" stroke="#2431A5"/>
<circle cx="12" cy="36" r="2" fill="#2431A5"/>
<line x1="9" y1="39.5" x2="15" y2="39.5" stroke="#2431A5"/>
<circle cx="21" cy="36" r="2" fill="#2431A5"/>
<line x1="18" y1="39.5" x2="24" y2="39.5" stroke="#2431A5"/>
<circle cx="30" cy="36" r="2" fill="#2431A5"/>
<line x1="27" y1="39.5" x2="33" y2="39.5" stroke="#2431A5"/>
<circle cx="39" cy="36" r="2" fill="#2431A5"/>
<line x1="36" y1="39.5" x2="42" y2="39.5" stroke="#2431A5"/>
<circle cx="12" cy="43" r="2" fill="#2431A5"/>
<line x1="9" y1="46.5" x2="15" y2="46.5" stroke="#2431A5"/>
<circle cx="21" cy="43" r="2" fill="#2431A5"/>
<line x1="18" y1="46.5" x2="24" y2="46.5" stroke="#2431A5"/>
<circle cx="30" cy="43" r="2" fill="#2431A5"/>
<line x1="27" y1="46.5" x2="33" y2="46.5" stroke="#2431A5"/>
<circle cx="39" cy="43" r="2" fill="#2431A5"/>
<line x1="36" y1="46.5" x2="42" y2="46.5" stroke="#2431A5"/>
</svg>
